Coordinates
version=1
nRows=19
nColumns=33
inDegrees=yes

Units are S.I. units (second, meters, Newtons, ...)
Angles are in degrees.

endheader
time	ground_thorax_rot_x	ground_thorax_rot_y	ground_thorax_rot_z	ground_thorax_tx	ground_thorax_ty	ground_thorax_tz	clav_prot_r	clav_elev_r	scapula_abduction_r	scapula_elevation_r	scapula_upward_rot_r	scapula_winging_r	shoulder_elv_r	plane_of_elev_r	axial_rot_r	elbow_flexion_r	pro_sup_r	wrist_flex_r	wrist_dev_r	clav_prot_l	clav_elev_l	scapula_abduction_l	scapula_elevation_l	scapula_upward_rot_l	scapula_winging_l	shoulder_elv_l	plane_of_elev_l	axial_rot_l	elbow_flexion_l	pro_sup_l	wrist_flex_l	wrist_dev_l
      1.55000000	      1.60112409	      5.72919300	     11.50713706	     -0.11369232	      1.03654088	      0.03121385	      4.14000026	     10.56702737	     17.06029640	      6.85816340	     21.84893544	    -10.02110462	     14.06641863	    -71.88587187	     57.08559270	     57.17883453	    -32.22087605	     70.00000021	    -24.99999983	     15.26864206	     -6.16855545	    -24.17057292	    -19.94258389	    -44.58293887	      2.97941971	     60.47037614	    -35.33460915	     -1.92281318	     69.34502769	     16.67250371	     -4.05212643	    -24.99999983
      1.56000000	      1.55092983	      5.66930278	     11.44408377	     -0.11341174	      1.03646868	      0.03129820	      4.05655740	     10.70636827	     17.08512628	      6.88379431	     22.12758391	    -10.07178200	     14.31579553	    -71.75947920	     56.91815791	     57.74458028	    -32.17732168	     70.00000021	    -24.99999983	     15.31861100	     -6.09615526	    -24.18545235	    -19.90286079	    -44.34971324	      3.02347151	     60.64062746	    -35.10557257	     -1.77541395	     69.79947748	     16.50687849	     -3.91231413	    -24.99999983
      1.57000000	      1.58036806	      5.73307705	     11.53509110	     -0.11322620	      1.03666081	      0.03142891	      3.99439318	     10.44198043	     16.89134342	      6.72852923	     21.92716830	     -9.97463956	     16.03698317	    -72.04943081	     57.19365610	     58.87969794	    -31.20919986	     70.00000021	    -24.99999983	     15.46868665	     -6.32067359	    -24.39855670	    -19.63588731	    -44.23846154	      3.16148585	     60.87792199	    -35.03499616	     -1.45337190	     70.21351540	     14.27455855	     -0.21853766	    -24.99999983
      1.58000000	      1.51537912	      5.66472452	     11.49336125	     -0.11304784	      1.03674481	      0.03154244	      3.94030971	     10.55500859	     16.99609420	      6.72438090	     22.22361415	    -10.04923129	     16.18783795	    -71.81096996	     57.07683218	     59.38129970	    -31.21432998	     70.00000021	    -24.99999983	     15.53541272	     -6.28362315	    -24.43300053	    -19.54463963	    -43.96399965	      3.22451171	     61.09307042	    -34.75033551	     -1.37417946	     70.46718385	     14.22107576	     -0.14566846	    -24.99999983
      1.59000000	      1.50918966	      5.64486554	     11.42056204	     -0.11274892	      1.03664776	      0.03162361	      3.86462534	     10.71578820	     17.06337174	      6.75530726	     22.54269656	    -10.11792632	     16.45361549	    -71.68780328	     56.84982265	     60.03686428	    -31.23378833	     70.00000021	    -24.99999983	     15.59565034	     -6.26175892	    -24.44241562	    -19.42544592	    -43.65894277	      3.27936913	     61.30342207	    -34.41863698	     -1.29276758	     70.75502343	     14.12219400	      0.02366863	    -24.99999983
      1.60000000	      1.65074212	      5.69553273	     11.35628625	     -0.11230503	      1.03655567	      0.03168691	      3.76013543	     10.90378116	     17.04927203	      6.81713659	     22.84211548	    -10.15931055	     16.95877904	    -71.80473302	     56.46485644	     60.87782005	    -31.29566754	     70.00000021	    -24.99999983	     15.62801447	     -6.33849118	    -24.39154878	    -19.19932317	    -43.31425305	      3.31630651	     61.46316258	    -33.97843189	     -1.24681797	     70.93499360	     13.88516867	      0.58447547	    -24.99999983
      1.61000000	      1.66292517	      5.70525269	     11.27688972	     -0.11213405	      1.03654903	      0.03170389	      3.76613097	     10.97730179	     17.25094161	      6.79361484	     23.09516037	    -10.25488988	     17.34546458	    -71.71699202	     56.29957633	     61.53281170	    -31.31038718	     70.00000021	    -24.99999983	     15.72734885	     -6.42420780	    -24.45280283	    -18.95031627	    -42.94810169	      3.41332083	     61.72201770	    -33.62493082	     -1.23297067	     71.07620298	     13.59345632	      1.29753111	    -24.99999983
      1.62000000	      1.70912212	      5.55770204	     11.46161868	     -0.11203251	      1.03692405	      0.03156371	      3.94158478	     10.78035242	     17.70921225	      6.59992424	     23.15359300	    -10.38911238	     18.51670436	    -71.92752918	     56.81487477	     62.34203369	    -31.50800436	     69.88018962	    -24.99999983	     15.74002351	     -6.73455886	    -24.33676158	    -18.47264661	    -42.51794361	      3.43410351	     61.91849083	    -33.72025359	     -0.92285117	     71.24184842	     11.73356062	      6.44405696	    -24.22264721
      1.63000000	      1.65946844	      5.51613685	     11.35218201	     -0.11169973	      1.03691311	      0.03145269	      3.89471675	     10.86529178	     17.83899292	      6.57480774	     23.44673550	    -10.46643603	     18.75826226	    -71.59378841	     56.64207590	     62.76734367	    -31.54135558	     69.74460139	    -24.99999983	     15.79401582	     -6.76282465	    -24.32502818	    -18.27793817	    -42.15022391	      3.48805440	     62.15924024	    -33.26768878	     -0.82723490	     71.33296121	     11.71785963	      6.62054952	    -24.09872000
      1.64000000	      1.50920446	      5.43624843	     11.52084537	     -0.11148700	      1.03696585	      0.03141815	      3.89711237	     10.90868189	     18.03340307	      6.53211937	     23.68432037	    -10.55490392	     18.86195422	    -71.30675659	     56.58643980	     63.10471150	    -31.54229377	     69.64504044	    -24.99999983	     15.89112393	     -6.80754414	    -24.40894036	    -18.10036884	    -41.86030069	      3.57527413	     62.41735650	    -33.01824137	     -0.79427083	     71.22491911	     11.70191875	      6.71411448	    -23.98267263
      1.65000000	      1.65764976	      5.35707310	     11.43312353	     -0.11134405	      1.03706344	      0.03116384	      3.92277275	     11.03493482	     18.36732990	      6.51217544	     24.06550874	    -10.70492943	     20.11694588	    -71.42049824	     56.67860387	     64.41602647	    -31.44190974	     64.20239067	    -24.99999983	     15.86279662	     -7.00370815	    -24.20640518	    -17.67549400	    -41.31358532	      3.56499288	     62.56216256	    -32.51679778	     -0.66484699	     71.51133128	     10.86119024	     10.35825458	    -20.43332244
      1.66000000	      1.49962051	      5.28957435	     11.53728875	     -0.11110075	      1.03689286	      0.03102370	      3.94279474	     11.04638213	     18.59567646	      6.44713944	     24.29007695	    -10.79914601	     20.25109550	    -71.09177872	     56.59034113	     64.73336856	    -31.33123948	     64.16648854	    -24.99999983	     15.97267822	     -7.07984630	    -24.30968411	    -17.45764248	    -41.00158953	      3.66485451	     62.84529917	    -32.21338021	     -0.64476241	     71.40849493	     10.85116246	     10.40374581	    -20.35676364
      1.67000000	      1.64705114	      5.21874071	     11.46348784	     -0.11111998	      1.03690431	      0.03074169	      4.02711998	     11.00138958	     18.98130762	      6.32721465	     24.53092698	    -10.94095138	     21.94262343	    -71.32888889	     56.42000568	     65.97157424	    -28.94313122	     58.21660510	    -24.99999983	     16.00237730	     -7.30681647	    -24.23596637	    -17.04881953	    -40.56060429	      3.69893121	     62.95671164	    -31.51848574	     -0.39580609	     71.39865519	      9.79736224	     13.60234064	    -16.99913476
      1.68000000	      1.57486030	      5.23406897	     11.44424167	     -0.11082422	      1.03709098	      0.03067794	      3.88704983	     10.87194464	     18.74387729	      6.22652703	     24.51570316	    -10.85838904	     23.27784928	    -71.00617259	     55.78594401	     66.84076401	    -24.98500894	     52.69915615	    -24.99999983	     16.04050186	     -7.63685606	    -24.25380053	    -16.68071672	    -40.42215414	      3.72643453	     63.59825124	    -30.95987199	     -0.53491484	     71.09773706	      9.33639757	     14.43597038	    -16.03903236
      1.69000000	      1.48900995	      5.21257733	     11.43200512	     -0.11074821	      1.03711653	      0.03035389	      3.96910795	     10.75442681	     19.13198756	      6.05283642	     24.73662009	    -10.99053097	     23.42749356	    -70.57428539	     55.67725612	     66.80207809	    -25.05016074	     52.47499706	    -24.99999983	     16.18765382	     -7.84542411	    -24.39819367	    -16.30119201	    -40.02464958	      3.85637857	     63.80301946	    -30.41631598	     -0.55364226	     70.62537335	      9.33913933	     14.48760585	    -15.88675428
      1.70000000	      1.41845665	      5.20498085	     11.42237643	     -0.11070482	      1.03716368	      0.02998578	      4.05779228	     10.62226153	     19.53844080	      5.86614547	     24.95935891	    -11.12631673	     23.58670855	    -70.14502818	     55.56045804	     66.74841767	    -25.23543515	     52.01111541	    -24.99999983	     16.33228993	     -8.07678564	    -24.52836149	    -15.88234164	    -39.58643845	      3.97837995	     63.96404239	    -29.80174364	     -0.55224258	     69.94124687	      9.30222189	     14.65655486	    -15.59002864
      1.71000000	      1.39623676	      5.02743189	     11.35085222	     -0.11057293	      1.03654982	      0.02954529	      4.14248688	     10.64525232	     20.23368489	      5.68447721	     25.58690595	    -11.39802554	     23.83212973	    -70.03465106	     55.49396908	     67.43109952	    -26.27488597	     48.18063954	    -24.99999983	     16.45920023	     -7.90197366	    -24.61101014	    -15.73544052	    -38.93715022	      4.12005742	     63.51820924	    -28.84996874	     -0.13993270	     69.33162898	      8.34871562	     16.43246774	    -13.81087425
      1.72000000	      1.34483078	      5.00360830	     11.50222969	     -0.11062502	      1.03664094	      0.02934368	      4.15951694	     10.41394970	     20.30974255	      5.50024682	     25.55234715	    -11.40309175	     25.04391022	    -69.66148092	     54.87120189	     67.90511504	    -21.36430590	     41.86222217	    -24.99999983	     16.64416540	     -8.37408580	    -24.88325854	    -15.26118683	    -38.85900924	      4.25421078	     63.85001521	    -28.23175290	      0.04839105	     68.68289080	      6.81467662	     18.47486700	    -11.32926460
      1.73000000	      1.25275133	      5.04493276	     11.54372611	     -0.11068635	      1.03653868	      0.02897778	      4.29693014	     10.14794163	     20.72713276	      5.24603217	     25.63939616	    -11.51890293	     25.18573282	    -69.12095929	     54.68460686	     67.62507579	    -21.58365133	     41.47334861	    -24.99999983	     16.81247587	     -8.68137755	    -25.05923312	    -14.77740924	    -38.43360074	      4.39101827	     64.11077644	    -27.62517667	     -0.17826679	     67.79596060	      6.88703597	     18.50370631	    -11.17265149
